<svg width="336" height="337" viewBox="0 0 336 337" fill="none" xmlns="http://www.w3.org/2000/svg">
<path d="M167.995 0.769531C75.3605 0.769531 0 76.1818 0 168.879C0 261.577 75.3605 336.989 167.995 336.989C260.629 336.989 335.989 261.577 335.989 168.879C335.989 76.1818 260.639 0.769531 167.995 0.769531ZM167.995 14.8491C252.869 14.8491 321.919 83.9472 321.919 168.89C321.919 253.833 252.869 322.921 167.995 322.921C83.1206 322.921 14.0699 253.822 14.0699 168.879C14.0699 83.9364 83.1206 14.8491 167.995 14.8491Z" fill="url(#paint0_linear_2038_860)"/>
<path d="M167.995 334.834C76.5618 334.834 2.16455 260.386 2.16455 168.879C2.16455 77.3731 76.5618 2.93555 167.995 2.93555C259.427 2.93555 333.825 77.3839 333.825 168.89C333.825 260.396 259.427 334.834 167.995 334.834ZM167.995 12.6829C81.9301 12.6829 11.9052 82.7558 11.9052 168.879C11.9052 255.003 81.93 325.076 168.005 325.076C254.081 325.076 324.095 255.003 324.095 168.879C324.095 82.7558 254.07 12.6829 167.995 12.6829Z" fill="url(#paint1_linear_2038_860)"/>
<mask id="mask0_2038_860" style="mask-type:luminance" maskUnits="userSpaceOnUse" x="2" y="2" width="332" height="333">
<path d="M167.995 334.834C76.5618 334.834 2.16455 260.386 2.16455 168.879C2.16455 77.3731 76.5618 2.93555 167.995 2.93555C259.427 2.93555 333.835 77.3839 333.835 168.89C333.835 260.396 259.438 334.834 167.995 334.834ZM167.995 12.6829C81.9301 12.6829 11.9052 82.7558 11.9052 168.879C11.9052 255.003 81.93 325.076 168.005 325.076C254.081 325.076 324.105 255.003 324.105 168.879C324.105 82.7558 254.07 12.6829 167.995 12.6829Z" fill="white"/>
</mask>
<g mask="url(#mask0_2038_860)">
<path d="M168.741 336.751L168.687 322.487H169.293L169.401 336.74H168.741V336.751ZM166.75 336.751H166.1L166.252 322.487H166.858L166.75 336.751ZM171.382 336.719L171.122 322.466H171.728L172.042 336.708H171.382V336.719ZM164.098 336.719L163.416 336.697L163.828 322.444H164.412L164.098 336.719ZM174.023 336.654L173.547 322.401L174.131 322.379L174.705 336.621L174.023 336.643V336.654ZM161.425 336.632L160.765 336.599L161.392 322.357L161.998 322.379L161.425 336.632ZM176.718 336.534L175.949 322.292L176.555 322.26L177.345 336.502L176.718 336.534ZM158.773 336.513L158.113 336.48L158.946 322.238L159.552 322.271L158.762 336.513H158.773ZM179.326 336.383L178.384 322.152L178.991 322.108L179.986 336.329L179.326 336.372V336.383ZM156.122 336.34L155.461 336.296L156.511 322.076L157.117 322.119L156.122 336.35V336.34ZM181.956 336.177L180.809 321.968L181.415 321.913L182.616 336.123L181.956 336.177ZM153.47 336.134L152.788 336.069L154.087 321.87L154.671 321.924L153.47 336.134ZM184.597 335.95L183.233 321.751L183.818 321.697L185.279 335.885L184.597 335.95ZM150.807 335.895L150.147 335.83L151.663 321.653L152.269 321.718L150.807 335.906V335.895ZM187.313 335.668L185.636 321.502L186.242 321.437L187.92 335.592L187.324 335.657L187.313 335.668ZM148.177 335.614L147.496 335.527L149.271 321.383L149.855 321.448L148.188 335.614H148.177ZM189.889 335.354L188.049 321.209L188.656 321.134L190.539 335.267L189.889 335.354ZM145.547 335.278L144.898 335.192L146.835 321.069L147.442 321.144L145.558 335.278H145.547ZM192.498 334.986L190.463 320.874L191.037 320.787L193.18 334.888L192.487 334.986H192.498ZM142.918 334.899L142.236 334.791L144.433 320.7L145.006 320.787L142.907 334.899H142.918ZM195.117 334.574L192.866 320.495L193.439 320.397L195.788 334.466L195.106 334.574H195.117ZM140.277 334.477L139.616 334.368L142.03 320.31L142.625 320.408L140.277 334.477ZM197.736 334.13L195.279 320.083L195.853 319.975L198.418 334L197.736 334.119V334.13ZM137.668 334.033L136.987 333.914L139.66 319.899L140.233 320.007L137.668 334.033ZM200.366 333.643L197.649 319.639L198.245 319.52L201.015 333.513L200.355 333.643H200.366ZM135.06 333.534L134.389 333.394L137.268 319.422L137.842 319.542L135.071 333.534H135.06ZM202.964 333.112L200.041 319.152L200.604 319.032L203.635 332.971L202.953 333.112H202.964ZM132.462 332.993L131.791 332.841L134.876 318.913L135.45 319.043L132.462 332.993ZM205.572 332.538L202.401 318.632L202.985 318.502L206.232 332.386L205.572 332.538ZM129.854 332.408L129.205 332.256L132.495 318.383L133.09 318.523L129.843 332.408H129.854ZM208.126 331.932L204.793 318.069L205.345 317.928L208.797 331.769L208.115 331.932H208.126ZM127.278 331.791L126.618 331.628L130.168 317.819L130.731 317.96L127.278 331.802V331.791ZM210.734 331.282L207.13 317.484L207.715 317.332L211.373 331.119L210.724 331.293L210.734 331.282ZM124.713 331.13L124.075 330.957L127.787 317.181L128.371 317.332L124.702 331.119L124.713 331.13ZM213.299 330.578L209.49 316.834L210.074 316.671L213.949 330.394L213.31 330.578H213.299ZM122.159 330.426L121.488 330.242L125.471 316.542L126.023 316.704L122.148 330.426H122.159ZM215.854 329.852L211.828 316.173L212.39 316.011L216.514 329.668L215.854 329.863V329.852ZM119.594 329.69L118.955 329.495L123.144 315.859L123.718 316.032L119.594 329.69ZM218.419 329.083L214.133 315.48L214.706 315.296L219.057 328.877L218.419 329.072V329.083ZM117.061 328.921L116.412 328.715L120.806 315.144L121.38 315.329L117.061 328.921ZM220.962 328.271L216.427 314.744L217.023 314.549L221.579 328.065L220.962 328.271ZM114.518 328.098L113.869 327.881L118.501 314.386L119.064 314.57L114.529 328.098H114.518ZM223.451 327.426L218.743 313.964L219.317 313.758L224.068 327.209L223.441 327.426H223.451ZM111.996 327.231L111.358 327.004L116.163 313.574L116.737 313.78L111.996 327.231ZM225.941 326.538L221.049 313.141L221.612 312.935L226.59 326.3L225.952 326.538H225.941ZM109.485 326.321L108.868 326.094L113.869 312.74L114.442 312.957L109.485 326.332V326.321ZM228.462 325.585L223.289 312.285L223.884 312.058L229.058 325.347L228.462 325.574V325.585ZM106.974 325.368L106.368 325.13L111.585 311.852L112.169 312.079L106.964 325.357L106.974 325.368ZM230.919 324.61L225.551 311.397L226.136 311.159L231.525 324.372L230.93 324.621L230.919 324.61ZM104.496 324.372L103.901 324.123L109.334 310.931L109.918 311.17L104.496 324.361V324.372ZM233.354 323.603L227.813 310.455L228.354 310.227L233.982 323.343L233.354 323.603ZM102.028 323.343L101.444 323.094L107.072 309.989L107.656 310.238L102.028 323.343ZM235.79 322.552L230.01 309.513L230.573 309.263L236.396 322.292L235.79 322.563V322.552ZM99.593 322.282L98.9978 322.011L104.842 308.993L105.416 309.253L99.593 322.282ZM238.203 321.469L232.229 308.516L232.77 308.267L238.798 321.199L238.192 321.48L238.203 321.469ZM97.1687 321.177L96.5843 320.906L102.645 307.985L103.208 308.245L97.1687 321.166V321.177ZM240.606 320.343L234.426 307.487L234.967 307.227L241.212 320.051L240.606 320.343ZM94.7768 320.051L94.1707 319.758L100.437 306.946L100.978 307.206L94.7768 320.051ZM242.976 319.184L236.601 306.415L237.153 306.144L243.571 318.892L242.987 319.184H242.976ZM92.3849 318.87L91.7897 318.567L98.2618 305.852L98.803 306.123L92.3849 318.87ZM245.346 317.982L238.744 305.332L239.296 305.05L245.92 317.69L245.346 317.982ZM90.0147 317.657L89.4411 317.354L96.0864 304.726L96.6384 305.018L90.0147 317.657ZM247.673 316.758L240.909 304.195L241.439 303.913L248.269 316.444L247.684 316.758H247.673ZM87.6661 316.401L87.0708 316.076L93.9543 303.577L94.4846 303.87L87.6553 316.401H87.6661ZM250.022 315.469L243.009 303.047L243.55 302.744L250.585 315.155L250.022 315.469ZM85.3283 315.112L84.7655 314.787L91.8221 302.386L92.3633 302.689L85.3283 315.101V315.112ZM252.295 314.18L245.141 301.834L245.649 301.541L252.89 313.834L252.295 314.18ZM83.0339 313.791L82.4602 313.455L89.7117 301.162L90.242 301.476L83.023 313.791H83.0339ZM254.6 312.827L247.219 300.61L247.749 300.285L255.152 312.491L254.6 312.827ZM80.7502 312.426L80.1766 312.079L87.6553 299.928L88.164 300.242L80.7502 312.437V312.426ZM256.851 311.451L249.308 299.332L249.816 299.018L257.414 311.094L256.84 311.451H256.851ZM78.4882 311.029L77.9362 310.682L85.5773 298.628L86.1076 298.964L78.4882 311.029ZM259.102 310.022L251.342 298.043L251.851 297.707L259.644 309.664L259.092 310.022H259.102ZM76.2478 309.588L75.6959 309.231L83.5317 297.307L84.0404 297.642L76.2478 309.599V309.588ZM261.321 308.559L253.366 296.711L253.886 296.364L261.862 308.202L261.321 308.559ZM74.0291 308.115L73.4663 307.736L81.5186 295.953L82.0165 296.289L74.0291 308.115ZM263.637 306.989L255.368 295.357L255.877 295.011L264.049 306.707L263.637 306.989ZM71.8212 306.61L71.3017 306.242L79.5056 294.567L80.0251 294.935L71.8212 306.61ZM265.683 305.559L257.36 293.96L257.858 293.603L266.202 305.18L265.672 305.559H265.683ZM69.6675 305.094L69.1263 304.704L77.5466 293.18L78.0336 293.527L69.6783 305.094H69.6675ZM267.945 303.935L259.33 292.552L259.828 292.184L268.367 303.621L267.945 303.935ZM67.5137 303.513L67.005 303.133L75.5768 291.718L76.0855 292.097L67.5137 303.513ZM269.958 302.419L261.278 291.09L261.765 290.711L270.477 302.018L269.958 302.408V302.419ZM65.4032 301.92L64.8729 301.509L73.6503 290.256L74.1265 290.624L65.4032 301.92ZM272.047 300.805L263.183 289.617L263.659 289.238L272.555 300.404L272.036 300.816L272.047 300.805ZM63.3144 300.296L62.784 299.873L71.7347 288.751L72.2 289.13L63.3035 300.296H63.3144ZM274.103 299.169L265.098 288.09L265.564 287.711L274.623 298.736L274.103 299.159V299.169ZM61.2255 298.617L60.7385 298.216L69.8298 287.213L70.3168 287.613L61.2255 298.617ZM276.159 297.469L266.949 286.563L267.425 286.162L276.657 297.047L276.159 297.469ZM59.2016 296.928L58.6929 296.494L67.9899 285.664L68.4445 286.054L59.2016 296.938V296.928ZM278.183 295.747L268.811 284.982L269.276 284.581L278.681 295.325L278.183 295.758V295.747ZM57.1994 295.195L56.6907 294.751L66.15 284.061L66.6046 284.451L57.1994 295.195ZM280.229 293.96L270.64 283.39L271.105 282.978L280.673 293.57L280.229 293.96ZM55.2188 293.44L54.7209 292.985L64.3425 282.447L64.7863 282.848L55.2079 293.44H55.2188ZM282.134 292.227L272.447 281.733L272.891 281.321L282.621 291.761L282.123 292.216L282.134 292.227ZM53.2598 291.642L52.7728 291.187L62.5676 280.79L63.0005 281.202L53.2706 291.642H53.2598ZM284.082 290.397L274.211 280.086L274.655 279.664L284.547 289.953L284.071 290.408L284.082 290.397ZM51.3333 289.812L50.8463 289.346L60.7926 279.112L61.2255 279.523L51.3333 289.812ZM285.987 288.556L275.954 278.397L276.398 277.964L286.452 288.101L285.987 288.556ZM49.4176 287.949L48.9522 287.494L59.0609 277.411L59.4938 277.844L49.4068 287.949H49.4176ZM287.859 286.682L277.675 276.675L278.108 276.242L288.324 286.216L287.87 286.682H287.859ZM47.5453 286.065L47.0907 285.599L57.3509 275.678L57.7838 276.122L47.5453 286.076V286.065ZM289.71 284.776L279.363 274.931L279.785 274.487L290.154 284.31L289.699 284.787L289.71 284.776ZM45.727 284.169L45.2616 283.682L55.6841 273.913L56.0954 274.346L45.727 284.169ZM291.528 282.848L281.041 273.166L281.463 272.711L291.983 282.371L291.539 282.848H291.528ZM43.9195 282.231L43.465 281.733L54.0391 272.126L54.4395 272.57L43.9195 282.231ZM293.336 280.877L282.664 271.389L283.086 270.913L293.758 280.411L293.336 280.888V280.877ZM42.1338 280.249L41.7008 279.761L52.4156 270.328L52.8269 270.794L42.1338 280.26V280.249ZM295.089 278.906L284.298 269.548L284.71 269.083L295.522 278.408L295.089 278.906ZM40.3912 278.256L39.9583 277.747L50.8463 268.509L51.2359 268.963L40.3912 278.256ZM296.81 276.891L285.879 267.707L286.257 267.252L297.243 276.382L296.81 276.902V276.891ZM38.6704 276.242L38.2483 275.743L49.2553 266.646L49.6449 267.111L38.6596 276.242H38.6704ZM298.498 274.855L287.426 265.844L287.805 265.379L298.931 274.335L298.509 274.855H298.498ZM36.982 274.195L36.5707 273.686L47.7184 264.761L48.108 265.238L36.982 274.195ZM300.176 272.765L288.941 263.949L289.331 263.451L300.576 272.256L300.186 272.754L300.176 272.765ZM35.3369 272.115L34.9256 271.584L46.2357 262.866L46.6037 263.332L35.3369 272.104V272.115ZM301.799 270.685L290.446 262.021L290.814 261.545L302.21 270.155L301.799 270.685ZM33.7243 270.025L33.3347 269.505L44.7637 260.938L45.1317 261.425L33.7351 270.036L33.7243 270.025ZM303.39 268.574L291.907 260.082L292.264 259.606L303.791 268.043L303.39 268.584V268.574ZM32.1333 267.902L31.7545 267.382L43.3135 258.989L43.6814 259.487L32.1441 267.913L32.1333 267.902ZM304.959 266.429L293.336 258.122L293.682 257.635L305.349 265.877L304.959 266.429ZM30.5856 265.758L30.2068 265.227L41.8956 257.018L42.2528 257.516L30.5856 265.758ZM306.485 264.263L294.732 256.14L295.078 255.642L306.864 263.711L306.485 264.263ZM29.0704 263.581L28.6916 263.028L40.5319 255.036L40.8675 255.523L29.0704 263.581ZM307.99 262.064L296.106 254.126L296.442 253.628L308.358 261.501L307.99 262.064ZM27.6093 261.404L27.2413 260.841L39.1791 252.999L39.5038 253.498L27.5985 261.393L27.6093 261.404ZM309.473 259.833L297.448 252.122L297.784 251.602L309.819 259.292L309.473 259.833ZM26.159 259.173L25.8235 258.642L37.8695 250.963L38.205 251.494L26.159 259.173ZM310.901 257.592L298.758 250.075L299.083 249.544L311.248 257.039L310.901 257.592ZM24.752 256.931L24.4165 256.378L36.6032 248.916L36.9279 249.447L24.7628 256.931H24.752ZM312.287 255.339L300.046 247.985L300.36 247.465L312.644 254.765L312.297 255.339H312.287ZM23.3883 254.689L23.042 254.115L35.3477 246.859L35.6508 247.368L23.3775 254.689H23.3883ZM313.65 253.043L301.28 245.905L301.604 245.353L313.975 252.49L313.65 253.043ZM22.0463 252.404L21.7216 251.841L34.1247 244.747L34.4278 245.288L22.0354 252.415L22.0463 252.404ZM314.96 250.758L302.492 243.783L302.784 243.263L315.285 250.173L314.96 250.758ZM20.7367 250.108L20.412 249.523L32.945 242.667L33.2372 243.187L20.7367 250.108ZM316.259 248.418L303.661 241.692L303.953 241.14L316.573 247.844L316.269 248.418H316.259ZM19.4704 247.79L19.1674 247.216L31.787 240.523L32.0792 241.075L19.4704 247.79ZM317.492 246.09L304.797 239.526L305.079 238.996L317.806 245.494L317.492 246.09ZM18.2366 245.44L17.9335 244.855L30.683 238.4L30.9644 238.942L18.2366 245.44ZM318.694 243.707L305.901 237.349L306.172 236.808L318.997 243.1L318.705 243.696L318.694 243.707ZM17.046 243.09L16.7538 242.494L29.5899 236.223L29.8605 236.754L17.0569 243.09H17.046ZM319.863 241.313L306.962 235.162L307.232 234.599L320.144 240.729L319.863 241.313ZM15.888 240.707L15.6066 240.1L28.5509 234.035L28.8106 234.577L15.8988 240.696L15.888 240.707ZM320.999 238.909L308.001 232.974L308.26 232.4L321.27 238.313L320.999 238.898V238.909ZM14.7732 238.313L14.5026 237.718L27.5335 231.848L27.7825 232.4L14.7732 238.313ZM322.092 236.483L308.996 230.754L309.256 230.169L322.352 235.898L322.092 236.483ZM13.6909 235.909L13.4203 235.302L26.5378 229.649L26.7759 230.201L13.6801 235.92L13.6909 235.909ZM323.142 234.046L309.96 228.523L310.198 227.949L323.38 233.461L323.131 234.057L323.142 234.046ZM12.6519 233.472L12.3922 232.855L25.607 227.418L25.8343 227.97L12.6411 233.472H12.6519ZM324.159 231.588L310.89 226.27L311.118 225.685L324.387 230.981L324.149 231.577L324.159 231.588ZM11.6454 231.014L11.4073 230.418L24.6979 225.165L24.936 225.75L11.6562 231.014H11.6454ZM325.134 229.107L311.789 224.006L312.016 223.422L325.372 228.501L325.144 229.107H325.134ZM10.6821 228.544L10.4548 227.938L23.8212 222.88L24.0485 223.465L10.6821 228.533V228.544ZM326.075 226.627L312.655 221.732L312.86 221.169L326.313 225.999L326.086 226.627H326.075ZM9.75134 226.064L9.53488 225.458L22.9879 220.627L23.2043 221.212L9.76217 226.064H9.75134ZM326.963 224.125L313.455 219.447L313.65 218.873L327.179 223.486L326.963 224.115V224.125ZM8.86386 223.573L8.6474 222.945L22.187 218.353L22.3818 218.927L8.86386 223.573ZM327.818 221.634L314.256 217.107L314.44 216.555L328.034 220.974L327.818 221.634ZM8.01966 221.06L7.82485 220.454L21.4185 216.024L21.6133 216.631L8.01966 221.06ZM328.64 219.079L314.992 214.822L315.176 214.237L328.835 218.45L328.64 219.079ZM7.21876 218.537L7.01312 217.876L20.7042 213.761L20.8774 214.313L7.21876 218.537ZM329.419 216.555L315.717 212.483L315.891 211.898L329.603 215.916L329.419 216.544V216.555ZM6.46115 216.013L6.26634 215.353L20.0115 211.443L20.1739 211.995L6.46115 216.013ZM330.155 214.01L316.399 210.143L316.551 209.591L330.339 213.338L330.155 214.01ZM5.73601 213.436L5.56284 212.797L19.373 209.093L19.5353 209.678L5.74683 213.447L5.73601 213.436ZM330.859 211.443L317.027 207.826L317.179 207.252L331.021 210.793L330.848 211.443H330.859ZM5.05416 210.88L4.89182 210.241L18.7561 206.743L18.9076 207.327L5.06498 210.869L5.05416 210.88ZM331.508 208.898L317.633 205.443L317.774 204.891L331.671 208.226L331.508 208.909V208.898ZM4.4156 208.313L4.25326 207.642L18.1716 204.403L18.3123 204.966L4.4156 208.302V208.313ZM332.125 206.299L318.196 203.114L318.326 202.53L332.277 205.66L332.125 206.309V206.299ZM3.82034 205.735L3.66882 205.064L17.6413 202.042L17.7712 202.616L3.82034 205.746V205.735ZM332.699 203.71L318.715 200.721L318.835 200.158L332.839 203.028L332.699 203.71ZM3.25754 203.147L3.11684 202.475L17.1326 199.66L17.2517 200.234L3.25754 203.147ZM333.218 201.111L319.192 198.349L319.3 197.786L333.348 200.439L333.218 201.122V201.111ZM2.72722 200.526L2.60816 199.876L16.6672 197.277L16.7755 197.873L2.72722 200.537V200.526ZM333.705 198.512L319.635 195.956L319.733 195.382L333.814 197.84L333.695 198.512H333.705ZM2.251 197.927L2.13195 197.244L16.2343 194.905L16.3317 195.479L2.251 197.938V197.927ZM334.149 195.88L320.036 193.584L320.133 192.988L334.246 195.23L334.138 195.891L334.149 195.88ZM1.81808 195.317L1.70986 194.634L15.8447 192.501L15.9313 193.075L1.81808 195.317ZM334.56 193.27L320.415 191.168L320.501 190.594L334.658 192.576L334.56 193.259V193.27ZM1.42846 192.706L1.33105 192.024L15.4984 190.096L15.5849 190.67L1.42846 192.706ZM334.939 190.551L320.75 188.797L320.826 188.19L335.015 189.966L334.939 190.551ZM1.0713 190.064L0.984714 189.414L15.1737 187.692L15.2494 188.298L1.06048 190.075L1.0713 190.064ZM335.242 188.006L321.042 186.381L321.107 185.775L335.318 187.335L335.242 187.995V188.006ZM0.724962 187.486L0.660024 186.89L14.8706 185.309L14.9356 185.916L0.724962 187.475V187.486ZM335.491 185.428L321.27 184.031L321.324 183.425L335.556 184.779L335.491 185.439V185.428ZM0.454387 184.865L0.389449 184.183L14.6325 182.927L14.6866 183.501L0.454387 184.854V184.865ZM335.729 182.807L321.486 181.605L321.529 181.02L335.783 182.114L335.729 182.797V182.807ZM0.227104 182.212L0.172989 181.551L14.4269 180.501L14.4702 181.107L0.216281 182.201L0.227104 182.212ZM335.924 180.143L321.659 179.201L321.703 178.594L335.967 179.482L335.924 180.143ZM0.0431133 179.569L-0.000178703 178.887L14.2754 178.096L14.3078 178.681L0.0431133 179.569ZM336.086 177.501L321.811 176.775L321.843 176.168L336.13 176.851L336.097 177.511L336.086 177.501ZM-0.108409 176.926L-0.140878 176.266L14.1455 175.638L14.1779 176.244L-0.0975857 176.916H-0.108409V176.926ZM336.195 174.858L321.908 174.338L321.93 173.753L336.216 174.165L336.195 174.847V174.858ZM-0.216639 174.295L-0.238285 173.612L14.0481 173.244L14.0697 173.818L-0.216639 174.284V174.295ZM336.26 172.215L321.962 171.901V171.316L336.27 171.522V172.204H336.26V172.215ZM-0.281577 171.63V170.97L14.0048 170.807V171.414L-0.281577 171.62V171.63ZM336.292 169.54L321.995 169.486V168.674H336.292V169.54ZM-0.303223 168.999V168.338L13.994 168.403V168.901L-0.303223 169.009V168.999ZM321.984 166.865V166.28L336.27 166.02V166.703L321.984 166.865ZM14.0156 166.573L-0.281577 166.367V165.717L14.0264 165.966V166.573H14.0156ZM321.919 164.439L321.897 163.854L336.184 163.388L336.205 164.071L321.919 164.439ZM14.0589 164.136L-0.227462 163.724L-0.205816 163.042L14.0805 163.562L14.0589 164.147V164.136ZM321.832 162.013L321.811 161.428L336.097 160.746L336.13 161.428L321.843 162.002L321.832 162.013ZM14.1455 161.731L-0.130055 161.049L-0.0975857 160.388L14.1779 161.114L14.1455 161.721V161.731ZM321.703 159.619L321.67 159.013L335.935 158.125L335.978 158.786L321.703 159.619ZM14.2754 159.305L0.0214673 158.406L0.0647593 157.746L14.3295 158.688L14.2862 159.295L14.2754 159.305ZM321.54 157.183L321.497 156.598L335.751 155.45L335.805 156.132L321.551 157.172L321.54 157.183ZM14.4485 156.869L0.194635 155.775L0.24875 155.157L14.5026 156.262L14.4593 156.869H14.4485ZM321.345 154.778L321.291 154.172L335.524 152.818L335.578 153.479L321.345 154.778ZM14.6542 154.443L0.421918 153.143L0.486856 152.461L14.7083 153.858L14.6542 154.443ZM321.097 152.331L321.032 151.746L335.242 150.186L335.318 150.868L321.097 152.331ZM14.8923 152.049L0.68167 150.489L0.757431 149.829L14.9572 151.453L14.8923 152.06V152.049ZM320.826 149.937L320.75 149.331L334.928 147.554L335.015 148.204L320.826 149.926V149.937ZM15.1845 149.634L0.995537 147.858L1.08212 147.175L15.2602 149.049L15.1845 149.634ZM320.512 147.533L320.436 146.959L334.582 144.923L334.679 145.605L320.512 147.533ZM15.5092 147.219L1.3527 145.237L1.4501 144.554L15.5958 146.655L15.5092 147.219ZM320.166 145.15L320.068 144.554L334.182 142.312L334.29 142.973L320.166 145.161V145.15ZM15.8663 144.825L1.74232 142.637L1.85055 141.955L15.9637 144.251L15.8772 144.825H15.8663ZM319.765 142.757L319.657 142.161L333.738 139.702L333.846 140.352L319.754 142.746L319.765 142.757ZM16.256 142.453L2.17524 139.995L2.2943 139.345L16.3642 141.847L16.256 142.442V142.453ZM319.332 140.363L319.224 139.767L333.272 137.103L333.391 137.753L319.332 140.352V140.363ZM16.6889 140.06L2.64063 137.406L2.77051 136.756L16.8079 139.475L16.6889 140.071V140.06ZM318.867 137.98L318.748 137.406L332.742 134.493L332.883 135.164L318.867 137.98ZM17.1651 137.677L3.16014 134.807L3.30084 134.125L17.2841 137.114L17.1651 137.677ZM318.358 135.63L318.228 135.034L332.179 131.904L332.32 132.554L318.358 135.63ZM17.663 135.327L3.71211 132.197L3.86363 131.547L17.8037 134.731L17.6738 135.316L17.663 135.327ZM317.806 133.258L317.666 132.663L331.562 129.327L331.714 129.966L317.806 133.258ZM18.2041 132.955L4.30737 129.619L4.46972 128.969L18.3556 132.37L18.2149 132.955H18.2041ZM317.222 130.897L317.07 130.302L330.913 126.76L331.075 127.399L317.211 130.897H317.222ZM18.7885 130.594L4.94593 127.052L5.1191 126.381L18.9292 130.052L18.7885 130.605V130.594ZM316.605 128.547L316.453 127.995L330.231 124.182L330.415 124.854L316.605 128.558V128.547ZM19.4163 128.244L5.62778 124.496L5.81177 123.825L19.5678 127.702L19.4163 128.255V128.244ZM315.945 126.197L315.782 125.644L329.495 121.626L329.69 122.298L315.934 126.197H315.945ZM20.0765 125.904L6.3421 121.951L6.53691 121.291L20.2388 125.363L20.0765 125.915V125.904ZM315.263 123.901L315.09 123.327L328.748 119.103L328.943 119.742L315.274 123.912L315.263 123.901ZM20.78 123.597L7.12135 119.395L7.32699 118.735L20.9531 123.045L20.78 123.597ZM314.538 121.583L314.343 121.009L327.937 116.579L328.142 117.208L314.538 121.594V121.583ZM21.5159 121.269L7.92226 116.85L8.12789 116.211L21.6999 120.695L21.5051 121.269H21.5159ZM313.78 119.298L313.575 118.702L327.092 114.056L327.298 114.662L313.78 119.298ZM22.2952 118.951L8.76645 114.337L8.99373 113.677L22.4792 118.399L22.2844 118.951H22.2952ZM312.979 117.002L312.763 116.417L326.205 111.565L326.421 112.171L312.968 117.002H312.979ZM23.1069 116.655L9.65394 111.825L9.88122 111.197L23.3126 116.092L23.1069 116.655ZM312.135 114.727L311.908 114.143L325.274 109.074L325.501 109.68L312.135 114.738V114.727ZM23.9511 114.37L10.5739 109.334L10.812 108.706L24.1676 113.807L23.9511 114.37ZM311.258 112.475L311.02 111.89L324.3 106.615L324.538 107.211L311.258 112.475ZM24.8386 112.106L11.548 106.854L11.7969 106.236L25.0659 111.554L24.8386 112.117V112.106ZM310.349 110.233L310.111 109.659L323.304 104.157L323.553 104.753L310.36 110.233H310.349ZM25.7586 109.865L12.5545 104.395L12.8143 103.789L25.9967 109.301L25.7586 109.865ZM309.408 108.012L309.159 107.438L322.255 101.72L322.514 102.305L309.408 108.002V108.012ZM26.711 107.623L13.6043 101.937L13.8749 101.33L26.9707 107.059L26.7218 107.623H26.711ZM308.434 105.803L308.174 105.229L321.183 99.3157L321.443 99.8897L308.434 105.803ZM27.7067 105.392L14.6758 99.5214L14.9572 98.9149L27.9556 104.85L27.7067 105.402V105.392ZM307.416 103.583L307.156 103.041L320.068 96.9222L320.35 97.5287L307.405 103.594L307.416 103.583ZM28.7349 103.182L15.8014 97.0954L16.0936 96.4889L28.9946 102.641L28.7349 103.182ZM306.366 101.406L306.107 100.875L318.91 94.5394L319.203 95.1351L306.366 101.406ZM29.7955 100.994L16.9703 94.7019L17.2733 94.0954L30.0553 100.475L29.7955 101.005V100.994ZM305.284 99.2399L305.014 98.7092L317.72 92.1676L318.023 92.7633L305.284 99.2399ZM30.8887 98.8175L18.1608 92.3192L18.4639 91.7344L31.1701 98.276L30.8887 98.8175ZM304.169 97.0846L303.888 96.5431L316.497 89.8282L316.811 90.4131L304.169 97.0846ZM32.0251 96.673L19.4055 89.969L19.7193 89.3733L32.2956 96.1424L32.0143 96.673H32.0251ZM303.022 94.9618L302.73 94.4312L315.23 87.5105L315.544 88.0845L303.022 94.9618ZM33.1831 94.5394L20.6826 87.6296L20.9964 87.0665L33.4862 93.9979L33.1831 94.5394ZM301.832 92.8499L301.539 92.33L313.932 85.2144L314.267 85.7885L301.842 92.8499H301.832ZM34.3737 92.4384L21.9922 85.3011L22.306 84.7487L34.6875 91.886L34.3737 92.4384ZM300.619 90.7596L300.316 90.2506L312.59 82.9292L312.936 83.5032L300.63 90.7596H300.619ZM35.6183 90.3264L23.3342 83.0267L23.6697 82.4635L35.9322 89.7957L35.6183 90.3264ZM299.375 88.7018L299.039 88.1603L311.204 80.6765L311.54 81.218L299.375 88.7018ZM36.8738 88.247L24.7087 80.7523L25.0659 80.1783L37.1876 87.7379L36.8738 88.247ZM298.076 86.6332L297.751 86.1134L309.797 78.4346L310.154 78.987L298.087 86.6332H298.076ZM38.1617 86.1892L26.1265 78.4996L26.4729 77.9581L38.4972 85.6693L38.1617 86.1892ZM296.756 84.5971L296.431 84.0989L308.336 76.2035L308.704 76.7667L296.756 84.608V84.5971ZM39.4929 84.1422L27.5768 76.2685L27.9232 75.7378L39.8393 83.6116L39.4929 84.1422ZM295.414 82.5827L295.067 82.0736L306.864 74.0158L307.232 74.5465L295.424 82.5718L295.414 82.5827ZM40.8566 82.1278L29.0704 74.0591L29.4384 73.5284L41.2138 81.6188L40.8675 82.1278H40.8566ZM294.039 80.5899L293.682 80.0917L305.349 71.8497L305.728 72.3804L294.039 80.5899ZM42.2528 80.135L30.5856 71.893L30.9644 71.3623L42.61 79.6368L42.2528 80.135ZM292.621 78.6187L292.253 78.1205L303.791 69.6945L304.169 70.2143L292.61 78.6079L292.621 78.6187ZM43.6706 78.1638L32.1441 69.7378L32.5338 69.2179L44.0494 77.6765L43.6814 78.1747L43.6706 78.1638ZM291.182 76.6693L290.814 76.1819L302.21 67.5717L302.6 68.0916L291.171 76.6693H291.182ZM45.1317 76.2144L33.7351 67.6042L34.049 67.1818L45.4997 75.7162L45.1209 76.2035L45.1317 76.2144ZM289.71 74.7523L289.331 74.2649L300.598 65.4814L300.998 65.9905L289.71 74.7414V74.7523ZM46.6037 74.3082L35.3586 65.4923L35.7482 64.9941L46.9933 73.81L46.6037 74.3082ZM288.205 72.8461L287.827 72.3804L298.931 63.402L299.353 63.9218L288.205 72.8461ZM48.1297 72.3912L37.0036 63.4345L37.4258 62.9146L48.4977 71.9255L48.1189 72.3912H48.1297ZM286.669 70.9616L286.279 70.4851L297.264 61.355L297.686 61.8532L286.679 70.9508L286.669 70.9616ZM49.6666 70.5067L38.6812 61.3767L39.1141 60.8677L50.0454 70.0519L49.6666 70.5067ZM285.099 69.0988L284.699 68.6331L295.543 59.3406L295.966 59.8388L285.099 69.1096V69.0988ZM51.2359 68.6439L40.4021 59.3514L40.835 58.8532L51.6472 68.1782L51.2467 68.6439H51.2359ZM283.497 67.2576L283.086 66.8027L293.779 57.3369L294.212 57.8243L283.497 67.2684V67.2576ZM52.8161 66.8244L42.1446 57.3261L42.5667 56.8496L53.2381 66.3479L52.8161 66.8244ZM281.874 65.4489L281.474 65.0049L291.993 55.3441L292.448 55.8423L281.874 65.4489ZM54.4503 65.0265L43.9304 55.3658L44.3633 54.9001L54.8832 64.5608L54.4503 65.0265ZM280.218 63.6727L279.807 63.2395L290.175 53.4163L290.641 53.9037L280.218 63.6727ZM56.1062 63.2504L45.7378 53.4272L46.1924 52.9506L56.5283 62.7955L56.1062 63.2395V63.2504ZM278.54 61.9182L278.118 61.485L288.335 51.5102L288.801 51.9867L278.54 61.9074V61.9182ZM57.7946 61.5067L47.5777 51.5318L48.0323 51.0661L58.2167 61.0734L57.7838 61.5175L57.7946 61.5067ZM276.841 60.1962L276.419 59.7738L286.474 49.6365L286.95 50.113L276.841 60.1962ZM59.5047 59.7846L49.4501 49.6473L49.9155 49.1925L59.9484 59.3514L59.5047 59.7846ZM275.099 58.485L274.666 58.0734L284.558 47.7845L285.045 48.2502L275.099 58.485ZM61.2363 58.0842L51.3441 47.7953L51.8203 47.3405L61.6909 57.651L61.2472 58.0734L61.2363 58.0842ZM273.335 56.8171L272.902 56.4055L282.632 45.965L283.119 46.4199L273.324 56.8171H273.335ZM63.0005 56.4272L53.2706 45.9867L53.7468 45.5426L63.4551 56.0048L63.0005 56.4272ZM271.56 55.1925L271.105 54.781L280.683 44.1888L281.127 44.5895L271.57 55.1925H271.56ZM64.7971 54.7918L55.2296 44.1996L55.7166 43.7664L65.2625 54.3802L64.8079 54.7918H64.7971ZM269.731 53.5571L269.276 53.1672L278.681 42.4234L279.19 42.8675L269.731 53.5571ZM66.6046 53.1781L57.1994 42.4343L57.6972 42.0011L67.0699 52.7665L66.6046 53.1672V53.1781ZM267.901 51.9759L267.425 51.5752L276.668 40.6906L277.166 41.113L267.901 51.9759ZM68.4553 51.586L59.1908 40.7231L59.6995 40.2899L68.9098 51.1961L68.4553 51.586ZM266.029 50.4163L265.553 50.0264L274.612 39.001L275.12 39.4126L266.029 50.4163ZM70.306 50.0481L61.2472 39.0227L61.7558 38.6111L70.7931 49.6582L70.3168 50.0481H70.306ZM264.146 48.8892L263.659 48.4993L272.545 37.3331L272.967 37.6689L264.135 48.8784L264.146 48.8892ZM72.1892 48.521L63.2927 37.3548L63.8014 36.9433L72.6654 48.1311L72.1784 48.5101L72.1892 48.521ZM262.23 47.3838L261.743 47.0047L270.467 35.6978L270.986 36.0985L262.241 47.3838H262.23ZM74.1049 47.0372L65.3924 35.7302L65.9119 35.3295L74.6027 46.6581L74.1157 47.0372H74.1049ZM260.293 45.9217L259.795 45.5534L268.334 34.1165L268.865 34.5064L260.293 45.9217ZM76.0314 45.5859L67.492 34.149L68.0224 33.7591L76.5292 45.2177L76.0422 45.5859H76.0314ZM258.312 44.4704L257.825 44.1238L266.181 32.5569L266.722 32.9468L258.302 44.4704H258.312ZM78.0012 44.1455L69.6133 32.5894L70.1545 32.1995L78.4774 43.7881L77.9903 44.1347L78.0012 44.1455ZM256.343 43.0733L255.855 42.7267L264.005 31.0082L264.557 31.3981L256.353 43.0733H256.343ZM79.9601 42.7592L71.7888 31.0623L72.3299 30.6833L80.4688 42.4126L79.971 42.7592H79.9601ZM254.319 41.687L253.821 41.3512L261.808 29.5244L262.371 29.9035L254.319 41.687ZM81.9516 41.3946L73.975 29.5569L74.5162 29.1995L82.4711 41.048L81.9516 41.3946ZM252.306 40.3548L251.797 40.0191L259.589 28.0623L260.141 28.4197L252.306 40.344V40.3548ZM83.9971 40.0516L76.1721 28.1165L76.7349 27.7482L84.495 39.7267L83.9971 40.0516ZM250.249 39.0335L249.73 38.7086L257.349 26.6435L257.912 27.0009L250.249 39.0444V39.0335ZM86.021 38.7628L78.4233 26.6868L78.9644 26.3511L86.5622 38.427L86.021 38.7628ZM248.182 37.7447L247.673 37.4306L255.087 25.2356L255.661 25.5821L248.182 37.7339V37.7447ZM88.0774 37.4848L80.6745 25.2789L81.2264 24.9431L88.6077 37.1599L88.0774 37.4848ZM246.104 36.4992L245.574 36.1851L252.793 23.8709L253.366 24.2067L246.115 36.4992H246.104ZM90.1662 36.2393L82.9256 23.9467L83.4993 23.611L90.6749 35.9469L90.1554 36.2501L90.1662 36.2393ZM243.993 35.2862L243.452 34.9829L250.487 22.5713L251.05 22.8854L243.993 35.2862ZM92.2659 35.0371L85.2309 22.6254L85.8262 22.2897L92.7746 34.7555L92.2659 35.0371ZM241.872 34.1057L241.32 33.8133L248.15 21.2825L248.723 21.5965L241.872 34.1165V34.1057ZM94.3764 33.8674L87.5471 21.3366L88.1207 21.0334L94.9283 33.575L94.3872 33.8674H94.3764ZM239.697 32.936L239.177 32.6652L245.801 20.0261L246.407 20.3402L239.697 32.936ZM96.5085 32.7302L89.8848 20.0911L90.4693 19.7879L97.0496 32.4486L96.5085 32.7302ZM237.565 31.8421L237.002 31.5605L243.42 18.8131L244.004 19.1055L237.565 31.8421ZM98.6731 31.6255L92.2118 18.8998L92.807 18.5965L99.2034 31.3548L98.6731 31.6255ZM235.346 30.7482L234.816 30.4883L241.017 17.6434L241.634 17.9359L235.346 30.7482ZM100.838 30.5533L94.5928 17.7301L95.1989 17.4377L101.379 30.2934L100.838 30.5533ZM233.16 29.6977L232.619 29.4486L238.614 16.5062L239.221 16.7878L233.16 29.7085V29.6977ZM103.024 29.5136L96.9847 16.5821L97.58 16.3113L103.576 29.2537L103.024 29.5136ZM230.952 28.6796L230.4 28.4305L236.179 15.3907L236.796 15.6615L230.952 28.6796ZM105.232 28.5064L99.3874 15.4882L99.9719 15.2282L105.795 28.2572L105.221 28.5064H105.232ZM228.722 27.7049L228.159 27.4666L233.744 14.3402L234.35 14.6001L228.722 27.7049ZM107.451 27.5533L101.823 14.4376L102.418 14.1885L108.024 27.3042L107.451 27.5424V27.5533ZM226.471 26.7627L225.908 26.5352L231.276 13.3221L231.893 13.5712L226.46 26.7627H226.471ZM109.669 26.6219L104.279 13.4087L104.875 13.1705L110.243 26.3836L109.658 26.6219H109.669ZM224.198 25.8529L223.646 25.6363L228.798 12.3365L229.437 12.5856L224.198 25.8529ZM111.92 25.7229L106.747 12.434L107.342 12.2066L112.516 25.4955L111.92 25.7229ZM221.936 24.9865L221.363 24.7699L226.32 11.3943L226.936 11.6217L221.936 24.9756V24.9865ZM114.204 24.8565L109.226 11.4918L109.832 11.2643L114.789 24.6399L114.204 24.8565ZM219.642 24.1417L219.068 23.9359L223.809 10.4845L224.447 10.712L219.653 24.1417H219.642ZM116.488 24.0226L111.736 10.5712L112.332 10.3654L117.083 23.8168L116.488 24.0226ZM217.336 23.3402L216.752 23.1453L221.287 9.61809L221.915 9.82387L217.326 23.3294L217.336 23.3402ZM118.782 23.2319L114.226 9.71557L114.864 9.49896L119.356 23.037L118.782 23.2211V23.2319ZM214.988 22.5713L214.436 22.398L218.754 8.80581L219.414 9.02242L214.988 22.5821V22.5713ZM121.098 22.4738L116.748 8.89245L117.364 8.6975L121.694 22.2897L121.098 22.4738ZM212.661 21.8456L212.109 21.6832L216.189 8.01519L216.849 8.21013L212.661 21.8456ZM123.414 21.759L119.291 8.10183L119.951 7.90688L123.977 21.5857L123.414 21.7482V21.759ZM210.334 21.1633L209.771 21.0009L213.646 7.27872L214.306 7.46284L210.334 21.1633ZM125.752 21.0767L121.834 7.36536L122.505 7.18125L126.315 20.9251L125.752 21.0875V21.0767ZM207.985 20.5135L207.423 20.3619L211.092 6.57474L211.752 6.74803L207.985 20.5027V20.5135ZM128.079 20.4377L124.421 6.65055L125.07 6.47727L128.674 20.2752L128.09 20.4269L128.079 20.4377ZM205.648 19.907L205.052 19.7554L208.505 5.91408L209.143 6.07654L205.637 19.907H205.648ZM130.439 19.8312L126.986 5.9899L127.635 5.82744L131.034 19.6796L130.449 19.8204L130.439 19.8312ZM203.288 19.333L202.693 19.1922L205.94 5.30758L206.589 5.45921L203.299 19.333H203.288ZM132.809 19.2572L129.562 5.37256L130.211 5.22094L133.393 19.1272L132.809 19.268V19.2572ZM200.907 18.7915L200.334 18.6615L203.321 4.71191L203.992 4.8527L200.907 18.7806V18.7915ZM135.179 18.7265L132.149 4.78772L132.83 4.64693L135.753 18.6073L135.19 18.7265H135.179ZM198.548 18.2933L197.952 18.1741L200.723 4.18122L201.373 4.31118L198.548 18.2933ZM137.571 18.2283L134.746 4.2462L135.428 4.10541L138.145 18.1091L137.571 18.2174V18.2283ZM196.156 17.8276L195.561 17.7192L198.126 3.69385L198.786 3.81298L196.167 17.8276H196.156ZM139.941 17.7734L137.376 3.748L138.026 3.62886L140.536 17.6651L139.941 17.7734ZM193.753 17.4052L193.158 17.3077L195.506 3.23897L196.167 3.34727L193.753 17.4052ZM142.333 17.351L139.984 3.28229L140.634 3.17399L142.928 17.2535L142.322 17.351H142.333ZM191.35 17.0153L190.777 16.9286L192.876 2.82741L193.558 2.92489L191.361 17.0153H191.35ZM144.747 16.9719L142.593 2.87073L143.285 2.77326L145.32 16.8853L144.747 16.9719ZM188.937 16.6687L188.352 16.5929L190.236 2.45918L190.918 2.55665L188.937 16.6795V16.6687ZM147.128 16.6254L145.244 2.49167L145.894 2.40503L147.734 16.5496L147.128 16.6254ZM186.545 16.3546L185.939 16.2788L187.606 2.11261L188.266 2.18842L186.545 16.3438V16.3546ZM149.552 16.3221L147.874 2.15593L148.535 2.08011L150.158 16.2463L149.552 16.3113V16.3221ZM184.121 16.0839L183.536 16.0189L184.954 1.83101L185.636 1.90683L184.121 16.0839ZM151.976 16.0514L150.515 1.86351L151.111 1.79852L152.582 15.9864L151.976 16.0514ZM181.718 15.8564L181.112 15.8023L182.313 1.59275L182.919 1.6469L181.718 15.8564ZM154.401 15.8239L153.145 1.62524L153.827 1.57109L154.974 15.7806L154.39 15.8348L154.401 15.8239ZM179.261 15.6506L178.677 15.6073L179.672 1.38697L180.365 1.44112L179.261 15.6615V15.6506ZM156.803 15.629L155.808 1.40863L156.468 1.3653L157.41 15.5965L156.803 15.6398V15.629ZM176.848 15.4882L176.242 15.4557L177.032 1.21368L177.692 1.24617L176.858 15.4774L176.848 15.4882ZM159.239 15.4665L158.449 1.22451L159.13 1.19202L159.812 15.434L159.228 15.4665H159.239ZM174.412 15.369L173.828 15.3474L174.347 1.09454L175.029 1.12704L174.402 15.369H174.412ZM161.674 15.3582L161.1 1.11621L161.782 1.09454L162.258 15.3474L161.674 15.369V15.3582ZM171.999 15.2824H171.393L171.707 1.0079L172.356 1.02956L172.01 15.2824H171.999ZM164.098 15.2824L163.73 1.02956H164.412L164.672 15.2716H164.087L164.098 15.2824ZM169.531 15.2607H168.947L169.055 0.99707H169.748L169.542 15.2607H169.531ZM166.512 15.2607L166.403 0.99707H167.064L167.118 15.2499H166.512V15.2607Z" fill="url(#paint2_linear_2038_860)"/>
</g>
<path d="M167.789 17.0152C168.168 17.0152 168.547 17.0152 168.925 17.0152C192.411 17.156 214.901 22.4413 235.779 32.7302L236.06 32.8709L236.731 33.2067C256.776 43.2573 274.688 57.8676 288.53 75.4887C302.546 93.3264 312.514 114.402 317.352 136.442L317.439 136.821L317.579 137.482C319.82 148.063 320.924 158.937 320.848 169.811C320.631 204.761 308.185 238.811 285.781 265.693L285.641 265.866L285.099 266.505C255.953 300.978 213.289 320.754 168.038 320.754C167.724 320.754 167.41 320.754 167.096 320.754C166.263 320.754 165.44 320.733 164.618 320.711H164.542L163.546 320.679C117.105 319.347 74.3324 297.447 46.1926 260.591L45.8462 260.147L45.5432 259.747C25.4665 233.093 14.9682 201.349 15.1739 167.959C15.2496 155.406 16.8839 142.897 20.0226 130.8L20.1308 130.377L20.2931 129.771C26.0835 108.121 36.9065 87.6187 51.5716 70.4958C66.1069 53.5246 84.5601 39.7049 104.918 30.5207L105.286 30.3583L105.892 30.0875C125.493 21.4124 146.316 17.0152 167.8 17.0152M167.8 14.8491C145.948 14.8491 124.843 19.3329 105.026 28.1056L104.539 28.3222L104.042 28.5388C83.3912 37.8529 64.6891 51.8675 49.9373 69.0879C35.0449 86.4707 24.0812 107.254 18.2043 129.218L18.0636 129.727L17.9229 130.258C14.7409 142.507 13.085 155.19 13.0093 167.948C12.8036 201.826 23.4535 234.003 43.8223 261.046L44.147 261.48L44.4717 261.913C73.0336 299.321 116.358 321.502 163.492 322.845L164.023 322.866H164.564C165.397 322.888 166.23 322.899 167.085 322.91C167.41 322.91 167.724 322.91 168.038 322.91C213.971 322.91 257.165 302.895 286.745 267.891L287.091 267.48L287.437 267.068C310.165 239.797 322.796 205.28 323.012 169.8C323.077 158.753 321.963 147.728 319.69 137.005L319.571 136.475L319.462 135.955C314.56 113.601 304.462 92.2325 290.23 74.1349C276.181 56.2538 258.02 41.4378 237.695 31.2572L237.208 31.0081C237.208 31.0081 237.208 31.0081 237.197 31.0081L236.731 30.7807C215.572 20.351 192.768 14.9899 168.936 14.8491C168.557 14.8491 168.168 14.8491 167.789 14.8491H167.8Z" fill="url(#paint3_linear_2038_860)"/>
<defs>
<linearGradient id="paint0_linear_2038_860" x1="167.995" y1="2.96811" x2="167.995" y2="342.534" gradientUnits="userSpaceOnUse">
<stop stop-color="#FFFB90"/>
<stop offset="0.14" stop-color="#FBE978"/>
<stop offset="0.24" stop-color="#F8DC65"/>
<stop offset="0.27" stop-color="#E6C758"/>
<stop offset="0.34" stop-color="#C49F40"/>
<stop offset="0.4" stop-color="#AC832F"/>
<stop offset="0.45" stop-color="#9E7225"/>
<stop offset="0.49" stop-color="#996C22"/>
<stop offset="0.52" stop-color="#9D7125"/>
<stop offset="0.56" stop-color="#A98030"/>
<stop offset="0.6" stop-color="#BD9A42"/>
<stop offset="0.64" stop-color="#D9BE5A"/>
<stop offset="0.69" stop-color="#FBE878"/>
<stop offset="0.77" stop-color="#FFFFAA"/>
<stop offset="0.83" stop-color="#FBE878"/>
<stop offset="1" stop-color="#A4631B"/>
</linearGradient>
<linearGradient id="paint1_linear_2038_860" x1="32.9668" y1="3.07635" x2="286.293" y2="313.718" gradientUnits="userSpaceOnUse">
<stop stop-color="#FFFB90"/>
<stop offset="0.14" stop-color="#FBE978"/>
<stop offset="0.24" stop-color="#F8DC65"/>
<stop offset="0.27" stop-color="#E6C758"/>
<stop offset="0.34" stop-color="#C49F40"/>
<stop offset="0.4" stop-color="#AC832F"/>
<stop offset="0.45" stop-color="#9E7225"/>
<stop offset="0.49" stop-color="#996C22"/>
<stop offset="0.52" stop-color="#9D7125"/>
<stop offset="0.56" stop-color="#A98030"/>
<stop offset="0.6" stop-color="#BD9A42"/>
<stop offset="0.64" stop-color="#D9BE5A"/>
<stop offset="0.69" stop-color="#FBE878"/>
<stop offset="0.77" stop-color="#FFFFAA"/>
<stop offset="0.83" stop-color="#FBE878"/>
<stop offset="1" stop-color="#A4631B"/>
</linearGradient>
<linearGradient id="paint2_linear_2038_860" x1="167.994" y1="336.762" x2="167.994" y2="1.01872" gradientUnits="userSpaceOnUse">
<stop stop-color="#FFFB90"/>
<stop offset="0.14" stop-color="#FBE978"/>
<stop offset="0.24" stop-color="#F8DC65"/>
<stop offset="0.27" stop-color="#E6C758"/>
<stop offset="0.34" stop-color="#C49F40"/>
<stop offset="0.4" stop-color="#AC832F"/>
<stop offset="0.45" stop-color="#9E7225"/>
<stop offset="0.49" stop-color="#996C22"/>
<stop offset="0.52" stop-color="#9D7125"/>
<stop offset="0.56" stop-color="#A98030"/>
<stop offset="0.6" stop-color="#BD9A42"/>
<stop offset="0.64" stop-color="#D9BE5A"/>
<stop offset="0.69" stop-color="#FBE878"/>
<stop offset="0.77" stop-color="#FFFFAA"/>
<stop offset="0.83" stop-color="#FBE878"/>
<stop offset="1" stop-color="#A4631B"/>
</linearGradient>
<linearGradient id="paint3_linear_2038_860" x1="58.9421" y1="278.364" x2="277.197" y2="59.5877" gradientUnits="userSpaceOnUse">
<stop stop-color="#FFFB90"/>
<stop offset="0.14" stop-color="#FBE978"/>
<stop offset="0.24" stop-color="#F8DC65"/>
<stop offset="0.27" stop-color="#E6C758"/>
<stop offset="0.34" stop-color="#C49F40"/>
<stop offset="0.4" stop-color="#AC832F"/>
<stop offset="0.45" stop-color="#9E7225"/>
<stop offset="0.49" stop-color="#996C22"/>
<stop offset="0.52" stop-color="#9D7125"/>
<stop offset="0.56" stop-color="#A98030"/>
<stop offset="0.6" stop-color="#BD9A42"/>
<stop offset="0.64" stop-color="#D9BE5A"/>
<stop offset="0.69" stop-color="#FBE878"/>
<stop offset="0.77" stop-color="#FFFFAA"/>
<stop offset="0.83" stop-color="#FBE878"/>
<stop offset="1" stop-color="#A4631B"/>
</linearGradient>
</defs>
</svg>
